<svg t="1634895415177" class="icon" viewBox="0 0 1024 1024" version="1.1" xmlns="http://www.w3.org/2000/svg" p-id="814" width="32" height="32"><path d="M228.8 643.2c-40 0-72-32-72-72s32-72 72-72 72 32 72 72-32 72-72 72z m0-97.6c-14.4 0-27.2 12.8-27.2 27.2 0 14.4 12.8 27.2 27.2 27.2 14.4 0 27.2-12.8 27.2-27.2 0-16-11.2-27.2-27.2-27.2z" fill="#ffffff" p-id="815"></path><path d="M856 297.6c28.8 0 38.4 22.4 38.4 51.2v448c0 28.8-22.4 51.2-51.2 51.2H179.2C150.4 848 128 825.6 128 796.8v-448c0-28.8 22.4-51.2 51.2-51.2h435.2c8 0 17.6-4.8 22.4-11.2 12.8-17.6 0-43.2-22.4-43.2H179.2c-59.2 0-107.2 48-107.2 107.2v448c0 59.2 48 107.2 107.2 107.2h664c59.2 0 107.2-48 107.2-107.2v-448c0-35.2-20.8-89.6-62.4-102.4-38.4-12.8-59.2 46.4-32 49.6z" fill="#ffffff" p-id="816"></path><path d="M448 691.2c-6.4-4.8-9.6-12.8-8-20.8l17.6-89.6c1.6-11.2 8-22.4 16-32 40-48 89.6-112 148.8-192 72-97.6 123.2-166.4 153.6-211.2 17.6-24 51.2-30.4 75.2-14.4 24 17.6 30.4 51.2 12.8 76.8-32 43.2-81.6 113.6-152 214.4-59.2 83.2-104 152-134.4 201.6-6.4 11.2-16 19.2-27.2 25.6l-80 43.2c-4.8 3.2-9.6 3.2-14.4 1.6-1.6 0-4.8-1.6-8-3.2z m377.6-520c-1.6-1.6-3.2-1.6-4.8-1.6-1.6 0-3.2 1.6-4.8 3.2-32 46.4-84.8 118.4-155.2 212.8-48 64-86.4 115.2-115.2 152-12.8 17.6-25.6 32-38.4 48-1.6 1.6-1.6 3.2-1.6 4.8l-6.4 33.6 32-17.6c1.6-1.6 3.2-1.6 3.2-3.2 1.6-1.6 1.6-3.2 3.2-4.8v-1.6c6.4-9.6 16-24 27.2-43.2 24-35.2 59.2-86.4 110.4-160 70.4-100.8 120-171.2 152-214.4 1.6-1.6 1.6-6.4-1.6-8z" fill="#ffffff" p-id="817"></path></svg>
